<svg width="240" height="52" viewBox="0 0 240 52" fill="none" xmlns="http://www.w3.org/2000/svg">
<path d="M72.9685 39.1318C72.6112 39.1318 72.3432 39.0868 72.1645 38.9969C71.9858 38.8771 71.8965 38.7123 71.8965 38.5026C71.8965 38.2329 72.0156 38.0682 72.2538 38.0082C72.5218 37.9184 72.8196 37.8135 73.1472 37.6937C73.8321 37.454 74.4277 37.0345 74.934 36.4353C75.47 35.8361 75.7975 35.0721 75.9167 34.1433C76.0953 32.7651 76.274 31.0724 76.4527 29.065C76.6611 27.0277 76.8696 24.8556 77.078 22.5486C77.2865 20.2416 77.4652 17.9646 77.6141 15.7176C77.6439 15.5378 77.6587 15.3131 77.6587 15.0435C77.6587 14.7738 77.6587 14.4892 77.6587 14.1896C77.6587 13.6503 77.5694 13.2309 77.3907 12.9313C77.2418 12.6017 76.9738 12.3321 76.5867 12.1223C76.2293 11.8827 75.8422 11.6879 75.4253 11.5381C75.0084 11.3583 74.5617 11.2085 74.0852 11.0887C73.7279 10.9988 73.445 10.879 73.2365 10.7292C73.0281 10.5794 72.9239 10.3846 72.9239 10.1449C72.9239 9.8753 73.043 9.69554 73.2812 9.60566C73.5194 9.51578 73.8023 9.47084 74.1299 9.47084C74.5766 9.47084 75.1275 9.48582 75.7827 9.51578C76.4378 9.54574 77.1525 9.5757 77.9268 9.60566C78.7308 9.60566 79.5348 9.62064 80.3389 9.6506C81.1727 9.68056 81.932 9.69554 82.617 9.69554C82.8552 9.69554 83.0785 9.78542 83.287 9.96518C83.4955 10.115 83.6295 10.2948 83.689 10.5045C83.8975 11.0737 84.091 11.628 84.2697 12.1673C84.4484 12.6766 84.6419 13.2159 84.8504 13.7852L91.4167 29.5594C91.4763 29.6792 91.5507 29.7541 91.64 29.7841C91.7592 29.7841 91.8485 29.7092 91.9081 29.5594L98.2957 14.639C98.5041 13.5904 98.6679 12.7365 98.787 12.0774C98.9359 11.4183 99.0699 10.894 99.189 10.5045C99.3082 10.115 99.5464 9.92025 99.9037 9.92025H101.824C103.075 9.86032 104.371 9.77044 105.711 9.6506C107.081 9.50079 108.153 9.42589 108.927 9.42589C109.225 9.42589 109.478 9.48582 109.686 9.60566C109.924 9.69554 110.044 9.86032 110.044 10.1C110.044 10.3697 109.939 10.5644 109.731 10.6842C109.552 10.8041 109.314 10.9089 109.016 10.9988C108.837 11.0587 108.629 11.1486 108.391 11.2685C108.153 11.3583 107.944 11.4482 107.765 11.5381C106.991 11.8976 106.41 12.3171 106.023 12.7965C105.666 13.2459 105.517 13.9799 105.577 14.9986C105.636 17.1557 105.711 19.0432 105.8 20.6611C105.889 22.279 105.964 23.777 106.023 25.1552C106.113 26.5334 106.202 27.9715 106.291 29.4695C106.41 30.9376 106.53 32.6603 106.649 34.6377C106.708 35.4167 107.021 36.0458 107.587 36.5252C108.182 36.9746 108.957 37.3191 109.91 37.5588C110.207 37.6487 110.46 37.7536 110.669 37.8734C110.877 37.9933 110.982 38.188 110.982 38.4576C110.982 38.6674 110.892 38.8322 110.714 38.952C110.535 39.0718 110.312 39.1318 110.044 39.1318C109.388 39.1318 108.629 39.1018 107.765 39.0419C106.932 39.0119 106.098 38.982 105.264 38.952C104.46 38.922 103.76 38.9071 103.165 38.9071C102.569 38.9071 101.899 38.922 101.154 38.952C100.44 38.982 99.7102 39.0119 98.9657 39.0419C98.2212 39.1018 97.5065 39.1318 96.8216 39.1318C96.5536 39.1318 96.3154 39.0868 96.1069 38.9969C95.8985 38.8771 95.7942 38.7123 95.7942 38.5026C95.7942 38.2329 95.8985 38.0232 96.1069 37.8734C96.3154 37.7236 96.5685 37.6188 96.8663 37.5588C97.9681 37.3491 98.7275 37.0495 99.1444 36.66C99.5613 36.2406 99.7548 35.5665 99.7251 34.6377C99.6357 32.7801 99.5613 30.9376 99.5017 29.11C99.4422 27.2524 99.3826 25.4398 99.3231 23.6721C99.2933 21.8745 99.2337 20.1368 99.1444 18.459C99.1444 18.2493 99.0848 18.1594 98.9657 18.1893C98.8764 18.1893 98.787 18.2942 98.6977 18.5039L90.166 38.9071C90.0171 39.3265 89.7937 39.5063 89.4959 39.4463C89.1982 39.3864 88.9897 39.2366 88.8706 38.9969C87.4114 35.5215 85.8778 32.091 84.2697 28.7055C82.6914 25.32 81.2322 21.9644 79.8922 18.6388C79.8028 18.3691 79.6539 18.2792 79.4455 18.3691C79.2668 18.429 79.1626 18.6238 79.1328 18.9533C79.0435 20.4514 78.969 22.0992 78.9095 23.8968C78.8499 25.6645 78.8201 27.4621 78.8201 29.2897C78.8201 31.0874 78.8201 32.7651 78.8201 34.3231C78.8201 35.162 79.0881 35.8511 79.6242 36.3904C80.1602 36.8997 81.0089 37.2892 82.1703 37.5588C82.4681 37.6188 82.751 37.7236 83.019 37.8734C83.287 37.9933 83.421 38.188 83.421 38.4576C83.421 38.6674 83.3019 38.8322 83.0637 38.952C82.8254 39.0718 82.5723 39.1318 82.3043 39.1318C81.5002 39.1318 80.8749 39.1018 80.4282 39.0419C79.9815 39.0119 79.5795 38.9969 79.2221 38.9969C78.8648 38.967 78.3734 38.952 77.7481 38.952C77.0929 38.952 76.4229 38.967 75.738 38.9969C75.0531 39.0269 74.4575 39.0569 73.9512 39.0868C73.445 39.1168 73.1174 39.1318 72.9685 39.1318Z" fill="#011B1F"/>
<path d="M113.972 51.7152C113.198 51.7152 112.454 51.4455 111.739 50.9062C111.024 50.367 110.667 49.6928 110.667 48.8839C110.667 48.3147 110.816 47.7454 111.113 47.1762C111.411 46.6369 111.873 46.3672 112.498 46.3672C112.975 46.3672 113.451 46.4421 113.928 46.5919C114.434 46.7717 114.91 46.8466 115.357 46.8166C115.804 46.7567 116.116 46.6369 116.295 46.4571C116.474 46.3073 116.682 46.0077 116.92 45.5583C117.129 45.1988 117.322 44.8392 117.501 44.4797C117.71 44.1501 117.933 43.7157 118.171 43.1764C118.439 42.6671 118.767 41.993 119.154 41.1541C119.511 40.3452 119.69 39.6261 119.69 38.9969C119.69 38.5475 119.615 38.1431 119.467 37.7835C119.347 37.394 119.213 37.0195 119.065 36.66L113.57 24.1215C113.302 23.4324 113.004 22.8632 112.677 22.4138C112.349 21.9644 111.903 21.6498 111.337 21.47C111.069 21.3502 110.86 21.2303 110.711 21.1105C110.563 20.9607 110.488 20.751 110.488 20.4813C110.488 20.2716 110.622 20.1368 110.89 20.0769C111.158 20.0169 111.396 19.987 111.605 19.987C112.32 19.987 112.915 20.002 113.392 20.0319C113.898 20.0619 114.345 20.0918 114.732 20.1218C115.119 20.1518 115.506 20.1667 115.893 20.1667C116.548 20.1667 117.099 20.1518 117.546 20.1218C117.992 20.0918 118.469 20.0619 118.975 20.0319C119.481 20.002 120.077 19.987 120.762 19.987C120.97 19.987 121.194 20.0319 121.432 20.1218C121.67 20.2117 121.789 20.3615 121.789 20.5712C121.789 20.8409 121.67 21.0356 121.432 21.1554C121.223 21.2453 121 21.3502 120.762 21.47C120.434 21.5899 120.181 21.7696 120.003 22.0093C119.824 22.249 119.735 22.6385 119.735 23.1778C119.735 23.4175 119.764 23.7021 119.824 24.0317C119.913 24.3612 120.047 24.7657 120.226 25.2451L122.995 32.0311C123.025 32.121 123.07 32.1659 123.129 32.1659C123.159 32.1659 123.204 32.121 123.263 32.0311L125.541 25.1552C125.631 24.9155 125.705 24.6309 125.765 24.3013C125.854 23.9418 125.899 23.6272 125.899 23.3575C125.899 22.8482 125.75 22.4437 125.452 22.1441C125.154 21.8146 124.842 21.5899 124.514 21.47C124.276 21.3801 124.038 21.2753 123.799 21.1554C123.591 21.0356 123.487 20.8409 123.487 20.5712C123.487 20.3615 123.606 20.2117 123.844 20.1218C124.082 20.0319 124.306 19.987 124.514 19.987C125.318 20.0169 125.943 20.0619 126.39 20.1218C126.837 20.1518 127.298 20.1667 127.775 20.1667C128.073 20.1667 128.341 20.1667 128.579 20.1667C128.847 20.1368 129.16 20.1068 129.517 20.0769C129.874 20.0469 130.306 20.0169 130.812 19.987C131.021 19.987 131.244 20.0169 131.482 20.0769C131.75 20.1368 131.884 20.2716 131.884 20.4813C131.884 20.751 131.81 20.9607 131.661 21.1105C131.542 21.2303 131.348 21.3502 131.08 21.47C130.515 21.6498 130.008 21.9943 129.562 22.5037C129.115 22.983 128.743 23.5673 128.445 24.2564L121.789 40.3452C121.551 40.9444 121.283 41.5885 120.985 42.2776C120.687 42.9967 120.375 43.7307 120.047 44.4797C119.749 45.2287 119.437 45.9927 119.109 46.7717C118.782 47.5507 118.454 48.3147 118.126 49.0637C117.769 49.9325 117.218 50.5917 116.474 51.0411C115.729 51.4905 114.895 51.7152 113.972 51.7152Z" fill="#011B1F"/>
<path d="M141.463 39.6261C140.183 39.6261 138.947 39.4763 137.756 39.1767C136.565 38.8771 135.448 38.3977 134.406 37.7386C134.227 37.5888 134.048 37.424 133.87 37.2442C133.691 37.0645 133.557 36.8697 133.468 36.66C133.17 35.8511 132.961 34.8624 132.842 33.6939C132.753 32.5255 132.723 31.342 132.753 30.1436C132.753 29.9339 132.842 29.7841 133.021 29.6942C133.2 29.6043 133.408 29.5594 133.646 29.5594C133.944 29.5594 134.138 29.6043 134.227 29.6942C134.346 29.7541 134.465 29.8889 134.584 30.0987C135.24 32.3457 136.207 34.1583 137.488 35.5365C138.798 36.9147 140.317 37.6038 142.044 37.6038C142.997 37.6038 143.771 37.394 144.367 36.9746C144.992 36.5252 145.469 35.9709 145.796 35.3118C146.124 34.6227 146.288 33.9336 146.288 33.2445C146.288 32.2858 146.094 31.4768 145.707 30.8177C145.35 30.1586 144.799 29.5594 144.054 29.0201C143.31 28.4808 142.357 27.8966 141.195 27.2674C139.945 26.5483 138.739 25.7993 137.577 25.0204C136.416 24.2114 135.463 23.2377 134.718 22.0992C133.974 20.9607 133.602 19.5376 133.602 17.8298C133.602 16.0622 134.048 14.5342 134.942 13.2459C135.865 11.9576 137.116 10.9539 138.694 10.2348C140.272 9.51578 142.044 9.15625 144.01 9.15625C145.141 9.15625 146.213 9.27609 147.226 9.51578C148.268 9.75546 149.102 9.99515 149.727 10.2348C150.084 10.3846 150.338 10.5494 150.486 10.7292C150.665 10.9089 150.814 11.2235 150.933 11.6729C151.082 12.3021 151.201 13.0661 151.291 13.9649C151.41 14.8637 151.469 15.8524 151.469 16.931C151.469 17.3205 151.201 17.5152 150.665 17.5152C150.397 17.5152 150.144 17.4553 149.906 17.3355C149.697 17.1857 149.563 17.0059 149.504 16.7962C148.998 14.9986 148.253 13.6353 147.27 12.7066C146.288 11.7778 145.082 11.3134 143.652 11.3134C142.759 11.3134 141.999 11.4632 141.374 11.7628C140.749 12.0624 140.272 12.5118 139.945 13.111C139.647 13.7102 139.498 14.4593 139.498 15.3581C139.498 16.0771 139.736 16.7512 140.213 17.3804C140.719 17.9796 141.434 18.5938 142.357 19.223C143.28 19.8522 144.337 20.5263 145.528 21.2453C147.136 22.2041 148.417 23.1478 149.37 24.0766C150.323 25.0054 151.008 25.9941 151.425 27.0427C151.871 28.0613 152.095 29.2448 152.095 30.593C152.095 32.6303 151.648 34.3231 150.754 35.6713C149.891 37.0195 148.655 38.0232 147.047 38.6824C145.469 39.3115 143.607 39.6261 141.463 39.6261Z" fill="#011B1F"/>
<path d="M155.362 50.7714C155.153 50.7714 154.945 50.7115 154.736 50.5917C154.558 50.5018 154.468 50.352 154.468 50.1423C154.468 49.9026 154.558 49.7078 154.736 49.558C154.945 49.4382 155.198 49.3333 155.496 49.2434C156.121 49.0337 156.553 48.809 156.791 48.5693C157.059 48.3596 157.193 48.0151 157.193 47.5357V26.009C157.193 25.6196 157.119 25.2451 156.97 24.8855C156.821 24.526 156.612 24.2114 156.344 23.9418C156.076 23.6422 155.734 23.4624 155.317 23.4025C155.138 23.3426 155.004 23.2677 154.915 23.1778C154.826 23.0579 154.781 22.8632 154.781 22.5935C154.781 22.3539 154.826 22.1741 154.915 22.0543C155.004 21.9344 155.123 21.8595 155.272 21.8296C156.315 21.5899 157.431 21.2753 158.622 20.8858C159.814 20.4963 160.841 20.0918 161.705 19.6724C161.824 19.6125 161.943 19.5526 162.062 19.4926C162.211 19.4028 162.345 19.3578 162.464 19.3578C162.643 19.3578 162.747 19.4177 162.777 19.5376C162.836 19.6275 162.866 19.7473 162.866 19.8971C162.866 20.1368 162.821 20.5413 162.732 21.1105C162.672 21.6498 162.643 22.1142 162.643 22.5037C162.643 22.8033 162.672 22.983 162.732 23.043C163.03 22.7433 163.551 22.3389 164.295 21.8296C165.07 21.3202 165.948 20.8708 166.931 20.4813C167.914 20.0918 168.866 19.8971 169.79 19.8971C171.398 19.8971 172.753 20.3315 173.854 21.2004C174.986 22.0393 175.85 23.1328 176.445 24.4811C177.041 25.7993 177.339 27.1925 177.339 28.6606C177.339 30.0687 177.071 31.4319 176.535 32.7502C176.028 34.0684 175.299 35.2669 174.346 36.3454C173.393 37.3941 172.291 38.2329 171.04 38.8621C169.79 39.4913 168.45 39.8059 167.02 39.8059C166.693 39.8059 166.291 39.7609 165.814 39.671C165.367 39.5812 164.906 39.4613 164.429 39.3115C163.983 39.1617 163.566 39.0119 163.179 38.8621C163.149 38.8621 163.119 38.9071 163.089 38.9969C163.06 39.0868 163.03 39.1917 163 39.3115C163 39.4314 163 39.5512 163 39.671V47.1312C163 47.5207 163.089 47.8503 163.268 48.1199C163.476 48.3896 163.759 48.5993 164.117 48.7491C164.474 48.9288 164.906 49.0936 165.412 49.2434C165.71 49.3333 165.948 49.4382 166.127 49.558C166.305 49.7078 166.395 49.9026 166.395 50.1423C166.395 50.322 166.305 50.4718 166.127 50.5917C165.978 50.7115 165.814 50.7714 165.635 50.7714C164.742 50.7714 163.804 50.7265 162.821 50.6366C161.868 50.5767 161.005 50.5467 160.231 50.5467C159.724 50.5467 159.203 50.5617 158.667 50.5917C158.161 50.6216 157.625 50.6516 157.059 50.6815C156.523 50.7415 155.957 50.7714 155.362 50.7714ZM166.886 37.7386C167.214 37.7386 167.601 37.6188 168.048 37.3791C168.524 37.1094 168.986 36.69 169.432 36.1207C169.909 35.5515 170.296 34.7875 170.594 33.8287C170.921 32.87 171.085 31.6866 171.085 30.2784C171.085 28.6306 170.921 27.3273 170.594 26.3686C170.266 25.3799 169.864 24.6458 169.388 24.1665C168.911 23.6871 168.42 23.3725 167.914 23.2227C167.437 23.043 167.02 22.9531 166.663 22.9531C166.127 22.9531 165.576 23.0729 165.01 23.3126C164.444 23.5523 163.983 23.8369 163.625 24.1665C163.268 24.496 163.089 24.7956 163.089 25.0653C163.089 25.305 163.089 25.7694 163.089 26.4585C163.089 27.1475 163.074 27.9115 163.045 28.7504C163.045 29.5893 163.03 30.3533 163 31.0424C163 31.7315 163 32.2109 163 32.4805C163 33.1696 163.149 33.9336 163.447 34.7725C163.774 35.5814 164.221 36.2855 164.787 36.8847C165.382 37.454 166.082 37.7386 166.886 37.7386Z" fill="#011B1F"/>
<path d="M193.812 39.9407C193.573 39.9407 193.454 39.7909 193.454 39.4913C193.454 39.1318 193.484 38.6524 193.544 38.0532C193.633 37.454 193.678 36.9896 193.678 36.66C193.678 36.5402 193.663 36.4353 193.633 36.3454C193.633 36.2556 193.618 36.1956 193.588 36.1657C192.784 37.1544 191.757 37.9933 190.506 38.6824C189.255 39.3415 187.93 39.671 186.531 39.671C185.607 39.671 184.774 39.4014 184.029 38.8621C183.285 38.2929 182.689 37.5289 182.242 36.5701C181.826 35.6114 181.617 34.5328 181.617 33.3344V24.9305C181.617 24.2414 181.483 23.6871 181.215 23.2677C180.977 22.8482 180.515 22.5636 179.83 22.4138C179.652 22.3838 179.488 22.3089 179.339 22.1891C179.22 22.0393 179.16 21.8296 179.16 21.5599C179.16 21.3502 179.22 21.1854 179.339 21.0656C179.458 20.9158 179.622 20.8259 179.83 20.7959C181.081 20.736 182.213 20.6162 183.225 20.4364C184.238 20.2267 185.265 19.987 186.307 19.7173C186.456 19.6874 186.605 19.6574 186.754 19.6275C186.933 19.5675 187.096 19.5376 187.245 19.5376C187.662 19.5376 187.856 19.7473 187.826 20.1667C187.707 20.8558 187.618 21.4401 187.558 21.9194C187.498 22.3688 187.469 22.9381 187.469 23.6272V32.2558C187.469 32.9749 187.588 33.604 187.826 34.1433C188.064 34.6826 188.392 35.1021 188.809 35.4017C189.226 35.7013 189.687 35.8661 190.193 35.896C190.67 35.896 191.131 35.8361 191.578 35.7163C192.055 35.5964 192.501 35.3268 192.918 34.9073C193.097 34.7575 193.29 34.4579 193.499 34.0085C193.707 33.5291 193.812 32.9 193.812 32.121V24.8855C193.812 24.3462 193.707 23.9118 193.499 23.5822C193.29 23.2227 193.008 22.9381 192.65 22.7284C192.293 22.5186 191.876 22.3988 191.399 22.3688C191.072 22.3389 190.804 22.264 190.595 22.1441C190.417 21.9943 190.327 21.7397 190.327 21.3801C190.327 21.0805 190.432 20.8558 190.64 20.706C190.849 20.5562 191.102 20.4813 191.399 20.4813C192.918 20.3914 194.124 20.3165 195.018 20.2566C195.911 20.1667 196.641 20.0769 197.206 19.987C197.772 19.8971 198.338 19.7922 198.904 19.6724C198.993 19.6424 199.097 19.6125 199.217 19.5825C199.336 19.5526 199.425 19.5376 199.485 19.5376C199.931 19.5376 200.155 19.7173 200.155 20.0769C200.155 20.1667 200.14 20.2716 200.11 20.3914C200.08 20.5113 200.035 20.6311 199.976 20.751C199.946 20.8708 199.901 21.1405 199.842 21.5599C199.812 21.9494 199.767 22.3688 199.708 22.8182C199.678 23.2677 199.663 23.6272 199.663 23.8968V34.3231C199.663 35.0122 199.738 35.4766 199.887 35.7163C200.065 35.926 200.259 36.0308 200.467 36.0308C200.616 36.0308 200.839 36.0458 201.137 36.0758C201.435 36.0758 201.629 36.0758 201.718 36.0758C201.986 36.0758 202.194 36.1507 202.343 36.3005C202.492 36.4503 202.567 36.645 202.567 36.8847C202.567 37.1544 202.507 37.3791 202.388 37.5588C202.299 37.7086 202.105 37.7985 201.807 37.8285C200.378 37.9483 199.083 38.203 197.921 38.5925C196.79 38.952 195.807 39.2965 194.973 39.6261C194.794 39.686 194.601 39.746 194.392 39.8059C194.184 39.8958 193.99 39.9407 193.812 39.9407Z" fill="#011B1F"/>
<path d="M204.835 39.1318C204.597 39.1318 204.388 39.0868 204.21 38.9969C204.031 38.8771 203.942 38.7123 203.942 38.5026C203.942 38.2629 204.031 38.0831 204.21 37.9633C204.388 37.8135 204.641 37.6937 204.969 37.6038C205.624 37.3941 206.056 37.1693 206.264 36.9297C206.503 36.69 206.622 36.3454 206.622 35.896V25.5596C206.622 24.9305 206.532 24.4211 206.354 24.0317C206.205 23.6122 205.847 23.3276 205.282 23.1778C205.133 23.1179 204.999 23.043 204.88 22.9531C204.761 22.8332 204.701 22.6385 204.701 22.3688C204.701 21.9494 204.88 21.6947 205.237 21.6048C206.19 21.3652 207.232 21.0506 208.364 20.6611C209.525 20.2716 210.508 19.8821 211.312 19.4926C211.461 19.3728 211.64 19.2679 211.848 19.178C212.086 19.0582 212.25 18.9983 212.339 18.9983C212.607 18.9983 212.741 19.1631 212.741 19.4926C212.741 19.6424 212.726 19.957 212.697 20.4364C212.697 20.8858 212.682 21.3502 212.652 21.8296C212.652 22.3089 212.637 22.7134 212.607 23.043C212.607 23.3126 212.667 23.4474 212.786 23.4474C213.233 22.8182 213.754 22.2041 214.349 21.6048C214.975 21.0056 215.645 20.5113 216.36 20.1218C217.074 19.7323 217.774 19.5376 218.459 19.5376C219.501 19.5376 220.231 19.7323 220.648 20.1218C221.094 20.5113 221.318 21.0206 221.318 21.6498C221.318 22.0992 221.184 22.5935 220.916 23.1328C220.677 23.6721 220.365 24.1365 219.978 24.526C219.591 24.9155 219.174 25.1102 218.727 25.1102C218.459 25.1102 218.176 25.0503 217.878 24.9305C217.58 24.7807 217.283 24.6309 216.985 24.4811C216.687 24.3612 216.389 24.2414 216.091 24.1215C215.823 23.9717 215.57 23.8968 215.332 23.8968C214.558 23.8968 213.888 24.1815 213.322 24.7507C212.756 25.32 212.473 26.4585 212.473 28.1662V35.4916C212.473 36.0908 212.652 36.5402 213.009 36.8398C213.396 37.1094 214.007 37.3641 214.841 37.6038C215.168 37.6937 215.407 37.8135 215.555 37.9633C215.734 38.0831 215.823 38.2629 215.823 38.5026C215.823 38.922 215.57 39.1318 215.064 39.1318C214.171 39.1318 213.248 39.0868 212.295 38.9969C211.342 38.937 210.478 38.9071 209.704 38.9071C209.198 38.9071 208.676 38.922 208.14 38.952C207.634 38.982 207.098 39.0119 206.532 39.0419C205.996 39.1018 205.431 39.1318 204.835 39.1318Z" fill="#011B1F"/>
<path d="M223.331 39.1318C223.092 39.1318 222.884 39.0868 222.705 38.9969C222.527 38.8771 222.437 38.7123 222.437 38.5026C222.437 38.2629 222.527 38.0831 222.705 37.9633C222.884 37.8135 223.137 37.6937 223.465 37.6038C224.12 37.3941 224.552 37.1693 224.76 36.9297C224.998 36.69 225.117 36.3454 225.117 35.896V25.5596C225.117 24.9305 225.028 24.4211 224.849 24.0317C224.7 23.6122 224.343 23.3276 223.777 23.1778C223.628 23.1179 223.494 23.043 223.375 22.9531C223.256 22.8332 223.197 22.6385 223.197 22.3688C223.197 21.9494 223.375 21.6947 223.733 21.6048C224.686 21.3652 225.728 21.0506 226.859 20.6611C228.021 20.2716 229.004 19.8821 229.808 19.4926C229.956 19.3728 230.135 19.2679 230.344 19.178C230.582 19.0582 230.746 18.9983 230.835 18.9983C231.103 18.9983 231.237 19.1631 231.237 19.4926C231.237 19.6424 231.222 19.957 231.192 20.4364C231.192 20.8858 231.177 21.3502 231.148 21.8296C231.148 22.3089 231.133 22.7134 231.103 23.043C231.103 23.3126 231.163 23.4474 231.282 23.4474C231.728 22.8182 232.249 22.2041 232.845 21.6048C233.47 21.0056 234.14 20.5113 234.855 20.1218C235.57 19.7323 236.27 19.5376 236.955 19.5376C237.997 19.5376 238.726 19.7323 239.143 20.1218C239.59 20.5113 239.813 21.0206 239.813 21.6498C239.813 22.0992 239.679 22.5935 239.411 23.1328C239.173 23.6721 238.86 24.1365 238.473 24.526C238.086 24.9155 237.669 25.1102 237.223 25.1102C236.955 25.1102 236.672 25.0503 236.374 24.9305C236.076 24.7807 235.778 24.6309 235.48 24.4811C235.183 24.3612 234.885 24.2414 234.587 24.1215C234.319 23.9717 234.066 23.8968 233.828 23.8968C233.053 23.8968 232.383 24.1815 231.818 24.7507C231.252 25.32 230.969 26.4585 230.969 28.1662V35.4916C230.969 36.0908 231.148 36.5402 231.505 36.8398C231.892 37.1094 232.503 37.3641 233.336 37.6038C233.664 37.6937 233.902 37.8135 234.051 37.9633C234.23 38.0831 234.319 38.2629 234.319 38.5026C234.319 38.922 234.066 39.1318 233.56 39.1318C232.666 39.1318 231.743 39.0868 230.79 38.9969C229.837 38.937 228.974 38.9071 228.199 38.9071C227.693 38.9071 227.172 38.922 226.636 38.952C226.13 38.982 225.594 39.0119 225.028 39.0419C224.492 39.1018 223.926 39.1318 223.331 39.1318Z" fill="#011B1F"/>
<path d="M52.906 0.167346C38.323 16.4064 37.0596 32.2884 51.8384 49.1853C34.0432 36.4515 17.1489 35.7373 0.274224 51.0648C15.7582 33.9329 16.2087 17.3086 0 0.101562C17.8345 14.6021 35.1205 15.8238 52.906 0.167346Z" fill="#007582"/>
</svg>
